<svg xmlns="http://www.w3.org/2000/svg" xmlns:xlink="http://www.w3.org/1999/xlink" width="1913" height="1063" viewBox="0 0 1913 1063"><defs><clipPath id="b"><rect width="1913" height="1063"/></clipPath></defs><g id="a" clip-path="url(#b)"><path d="M1062.489,343.76c-8.96,0-17.822-.4-26.339-1.2a249.464,249.464,0,0,1-25.016-3.61,225.367,225.367,0,0,1-23.689-6.021,210.379,210.379,0,0,1-22.357-8.433,203.969,203.969,0,0,1-21.018-10.845A205.777,205.777,0,0,1,924.4,300.395a216,216,0,0,1-18.322-15.659,234.886,234.886,0,0,1-16.969-18.057c-5.4-6.388-10.543-13.114-15.272-19.993s-9.182-14.1-13.235-21.473-7.82-15.089-11.2-22.949-6.457-16.073-9.158-24.421-5.1-17.055-7.12-25.889-3.734-18.034-5.083-27.354a414.511,414.511,0,0,1-4.064-59.1V-11.076H977.134V61.086c0,11.188.462,21.867,1.374,31.743a240.31,240.31,0,0,0,4.114,27.75,165.36,165.36,0,0,0,6.837,23.751,116.638,116.638,0,0,0,9.536,19.757,82.587,82.587,0,0,0,12.107,15.5,65.958,65.958,0,0,0,31.68,17.639,88.866,88.866,0,0,0,39.415,0,65.957,65.957,0,0,0,31.68-17.639,82.57,82.57,0,0,0,12.107-15.5,116.638,116.638,0,0,0,9.536-19.757,165.36,165.36,0,0,0,6.837-23.751,240.3,240.3,0,0,0,4.114-27.75c.911-9.875,1.374-20.555,1.374-31.743V-34.6c0-12.165-.493-23.68-1.466-34.227a244.189,244.189,0,0,0-4.389-29.307,155.748,155.748,0,0,0-7.288-24.376,101.008,101.008,0,0,0-10.151-19.446,79.067,79.067,0,0,0-13-14.854,71.644,71.644,0,0,0-15.861-10.589,80.176,80.176,0,0,0-18.786-6.366,106.44,106.44,0,0,0-21.774-2.13H934.387v-87.326l.241-.372,182.515-281.8H832.81V-689.723h466.717v107.936l-.241.372L1122.325-307.928a301.086,301.086,0,0,1,40.812,12.467,235.676,235.676,0,0,1,37.039,18.15,197.941,197.941,0,0,1,31.151,23.364,185.509,185.509,0,0,1,25.23,28.57,191.879,191.879,0,0,1,19.475,34.682,258.681,258.681,0,0,1,13.883,41.646,367.379,367.379,0,0,1,8.315,48.6A528.492,528.492,0,0,1,1301-44.907V65.5a414.529,414.529,0,0,1-4.064,59.1c-1.349,9.32-3.059,18.523-5.083,27.354s-4.42,17.544-7.12,25.889-5.782,16.563-9.158,24.421-7.144,15.58-11.2,22.949-8.506,14.594-13.235,21.473-9.868,13.605-15.272,19.993a234.886,234.886,0,0,1-16.969,18.057,216,216,0,0,1-18.322,15.659,205.747,205.747,0,0,1-19.672,13.254,203.964,203.964,0,0,1-21.018,10.845,210.4,210.4,0,0,1-22.357,8.433,225.364,225.364,0,0,1-23.689,6.021,249.448,249.448,0,0,1-25.016,3.61C1080.311,343.356,1071.449,343.76,1062.489,343.76ZM826.978-8.076V65.5a411.5,411.5,0,0,0,4.033,58.67c1.338,9.24,3.033,18.362,5.038,27.114s4.377,17.374,7.05,25.635,5.72,16.387,9.06,24.16,7.063,15.4,11.069,22.687,8.406,14.422,13.079,21.219,9.75,13.443,15.09,19.754a231.92,231.92,0,0,0,16.752,17.826,213.009,213.009,0,0,0,18.067,15.44,202.74,202.74,0,0,0,19.385,13.06,200.961,200.961,0,0,0,20.708,10.685,207.418,207.418,0,0,0,22.037,8.312,222.355,222.355,0,0,0,23.372,5.94,246.5,246.5,0,0,0,24.714,3.566c8.425.789,17.192,1.19,26.059,1.19s17.635-.4,26.059-1.19A246.507,246.507,0,0,0,1113.262,336a222.361,222.361,0,0,0,23.373-5.94,207.4,207.4,0,0,0,22.037-8.312,200.967,200.967,0,0,0,20.708-10.685,202.774,202.774,0,0,0,19.385-13.06,213,213,0,0,0,18.066-15.44,231.909,231.909,0,0,0,16.752-17.826c5.34-6.311,10.417-12.958,15.09-19.754s9.073-13.936,13.079-21.219,7.73-14.917,11.069-22.687,6.388-15.9,9.06-24.16,5.045-16.887,7.05-25.635,3.7-17.874,5.038-27.114A411.5,411.5,0,0,0,1298,65.5V-44.907a525.544,525.544,0,0,0-2.752-55.23,364.424,364.424,0,0,0-8.246-48.2,255.679,255.679,0,0,0-13.719-41.161,188.9,188.9,0,0,0-19.167-34.139,182.538,182.538,0,0,0-24.822-28.107,194.938,194.938,0,0,0-30.678-23.008,232.658,232.658,0,0,0-36.567-17.917,299.89,299.89,0,0,0-42.478-12.816l-2.1-.474,1.168-1.8,177.885-274.914v-104.05H835.81V-548.4h286.85l-1.5,2.315L937.387-262.337v83.44h117.742a109.429,109.429,0,0,1,22.39,2.194,83.168,83.168,0,0,1,19.489,6.607,74.621,74.621,0,0,1,16.525,11.033,82.077,82.077,0,0,1,13.5,15.416,104.015,104.015,0,0,1,10.458,20.025,158.733,158.733,0,0,1,7.433,24.848,247.194,247.194,0,0,1,4.444,29.67c.981,10.638,1.479,22.246,1.479,34.5V61.086c0,11.279-.467,22.052-1.386,32.018a243.335,243.335,0,0,1-4.167,28.1,168.363,168.363,0,0,1-6.964,24.184,119.624,119.624,0,0,1-9.785,20.266,85.563,85.563,0,0,1-12.551,16.06,68.958,68.958,0,0,1-33.094,18.428,91.855,91.855,0,0,1-40.816,0,68.957,68.957,0,0,1-33.094-18.428,85.566,85.566,0,0,1-12.551-16.06,119.643,119.643,0,0,1-9.785-20.266,168.379,168.379,0,0,1-6.964-24.184,243.343,243.343,0,0,1-4.167-28.1c-.92-9.966-1.387-20.739-1.387-32.018V-8.076ZM73.225,343.76c-9.2,0-18.316-.409-27.084-1.214s-17.447-2.032-25.783-3.644a238.9,238.9,0,0,1-24.479-6.076,223.778,223.778,0,0,1-23.169-8.511,217.142,217.142,0,0,1-21.854-10.944A218.848,218.848,0,0,1-69.676,300a229.066,229.066,0,0,1-19.207-15.8,247.891,247.891,0,0,1-17.878-18.225c-5.711-6.447-11.14-13.223-16.137-20.139s-9.7-14.167-13.986-21.552-8.264-15.109-11.833-22.961-6.825-16.049-9.68-24.366-5.386-16.985-7.525-25.768-3.947-17.919-5.373-27.165-2.509-18.852-3.222-28.561-1.074-19.784-1.074-29.955V-423.242c0-10.171.361-20.249,1.074-29.955s1.8-19.318,3.222-28.56,3.234-18.385,5.373-27.165,4.672-17.452,7.525-25.767,6.111-16.516,9.68-24.366,7.55-15.577,11.833-22.962,8.989-14.636,13.986-21.552,10.426-13.692,16.137-20.139a247.838,247.838,0,0,1,17.878-18.224,229.016,229.016,0,0,1,19.207-15.8,218.91,218.91,0,0,1,20.532-13.376A217.148,217.148,0,0,1-27.29-682.055a223.755,223.755,0,0,1,23.169-8.51,238.917,238.917,0,0,1,24.479-6.077c8.336-1.612,17.011-2.838,25.783-3.644S64.021-701.5,73.225-701.5s18.316.409,27.084,1.214,17.447,2.032,25.783,3.644a238.917,238.917,0,0,1,24.479,6.076,223.778,223.778,0,0,1,23.169,8.511,217.148,217.148,0,0,1,21.854,10.944,218.862,218.862,0,0,1,20.533,13.376,229.02,229.02,0,0,1,19.206,15.8,247.893,247.893,0,0,1,17.878,18.225c5.71,6.447,11.14,13.223,16.137,20.139s9.7,14.168,13.986,21.552,8.264,15.11,11.833,22.962,6.825,16.048,9.68,24.366,5.386,16.985,7.526,25.767,3.947,17.919,5.373,27.165,2.51,18.852,3.222,28.56,1.074,19.784,1.074,29.955V65.5c0,10.171-.361,20.249-1.074,29.955s-1.8,19.318-3.222,28.561-3.234,18.386-5.373,27.165-4.672,17.452-7.526,25.768-6.111,16.516-9.68,24.366-7.551,15.577-11.833,22.961-8.989,14.636-13.986,21.552-10.426,13.692-16.137,20.139a247.894,247.894,0,0,1-17.878,18.225A229.026,229.026,0,0,1,216.126,300a218.881,218.881,0,0,1-20.533,13.375,217.169,217.169,0,0,1-21.854,10.944,223.778,223.778,0,0,1-23.169,8.511,238.917,238.917,0,0,1-24.479,6.076c-8.337,1.612-17.011,2.838-25.783,3.644S82.428,343.76,73.225,343.76Zm0-1042.26c-9.112,0-18.132.4-26.809,1.2s-17.249,2.009-25.488,3.6a235.94,235.94,0,0,0-24.17,6A220.7,220.7,0,0,0-26.1-679.3a214.086,214.086,0,0,0-21.551,10.793A215.843,215.843,0,0,0-67.9-655.317a225.981,225.981,0,0,0-18.954,15.595,244.846,244.846,0,0,0-17.66,18c-5.645,6.373-11.012,13.071-15.951,19.907s-9.589,14-13.823,21.3-8.169,14.936-11.7,22.7-6.75,15.872-9.573,24.1-5.33,16.81-7.449,25.5-3.91,17.751-5.323,26.912-2.489,18.694-3.2,28.323-1.066,19.637-1.066,29.735V65.5c0,10.1.359,20.1,1.066,29.735s1.782,19.159,3.2,28.323,3.2,18.216,5.323,26.912,4.625,17.275,7.449,25.5,6.044,16.335,9.573,24.1,7.464,15.4,11.7,22.7,8.884,14.465,13.823,21.3,10.306,13.534,15.951,19.907a244.853,244.853,0,0,0,17.66,18A225.986,225.986,0,0,0-67.9,297.578a215.9,215.9,0,0,0,20.25,13.192A214.15,214.15,0,0,0-26.1,321.562a220.756,220.756,0,0,0,22.857,8.4,235.868,235.868,0,0,0,24.17,6c8.239,1.593,16.815,2.805,25.488,3.6s17.7,1.2,26.809,1.2,18.132-.4,26.81-1.2,17.249-2.009,25.488-3.6a235.88,235.88,0,0,0,24.17-6,220.762,220.762,0,0,0,22.857-8.4A214.2,214.2,0,0,0,194.1,310.769a215.863,215.863,0,0,0,20.25-13.192A225.983,225.983,0,0,0,233.3,281.983a244.851,244.851,0,0,0,17.66-18c5.645-6.373,11.012-13.071,15.951-19.907s9.59-14,13.823-21.3,8.169-14.935,11.7-22.7,6.75-15.872,9.573-24.1,5.33-16.81,7.448-25.5,3.91-17.751,5.323-26.912,2.488-18.693,3.2-28.323S319.041,75.6,319.041,65.5V-423.242c0-10.1-.358-20.1-1.066-29.735s-1.782-19.159-3.2-28.323-3.2-18.216-5.323-26.912-4.624-17.275-7.448-25.5-6.044-16.335-9.573-24.1-7.464-15.4-11.7-22.7-8.884-14.465-13.823-21.3-10.306-13.534-15.951-19.907a244.845,244.845,0,0,0-17.66-18,225.977,225.977,0,0,0-18.954-15.595,215.856,215.856,0,0,0-20.25-13.192A214.166,214.166,0,0,0,172.55-679.3a220.757,220.757,0,0,0-22.857-8.4,235.876,235.876,0,0,0-24.17-6c-8.239-1.593-16.814-2.805-25.488-3.6S82.337-698.5,73.225-698.5ZM818.145,331.983H338.178V221.151l.195-.344L626.909-288.546a267.17,267.17,0,0,0,14.72-31.638,271.527,271.527,0,0,0,10.523-33.489A289.967,289.967,0,0,0,658.466-389a323.517,323.517,0,0,0,2.106-37.182c0-10.945-.432-21.348-1.282-30.92a235.018,235.018,0,0,0-3.839-26.74,154.566,154.566,0,0,0-6.377-22.552,103.077,103.077,0,0,0-8.885-18.364,74,74,0,0,0-11.361-14.2,62.422,62.422,0,0,0-13.836-10.108,65.854,65.854,0,0,0-16.373-6.071,85.1,85.1,0,0,0-18.986-2.032,88.164,88.164,0,0,0-19.336,2.034,67.828,67.828,0,0,0-16.676,6.075,63.521,63.521,0,0,0-14.089,10.112,74.244,74.244,0,0,0-11.564,14.205,102.286,102.286,0,0,0-9.043,18.362,152.5,152.5,0,0,0-6.49,22.549,231.19,231.19,0,0,0-3.907,26.738c-.866,9.571-1.305,19.973-1.305,30.917v42.719H344.067V-430.6a399.2,399.2,0,0,1,4.018-57.677c1.334-9.091,3.025-18.067,5.026-26.677s4.37-17.1,7.04-25.235,5.717-16.138,9.056-23.789,7.064-15.17,11.072-22.34a246.235,246.235,0,0,1,13.087-20.887,245.045,245.045,0,0,1,15.1-19.43,230.371,230.371,0,0,1,16.775-17.538,212.829,212.829,0,0,1,18.1-15.208,203.76,203.76,0,0,1,19.431-12.873,202.807,202.807,0,0,1,20.752-10.533,209.884,209.884,0,0,1,22.068-8.19,225.42,225.42,0,0,1,23.377-5.847c7.97-1.551,16.274-2.731,24.68-3.506s17.143-1.168,25.98-1.168,17.576.4,25.97,1.18a246.6,246.6,0,0,1,24.648,3.541,222.179,222.179,0,0,1,23.321,5.905,206.663,206.663,0,0,1,21.989,8.272,199.687,199.687,0,0,1,20.65,10.638,200.875,200.875,0,0,1,19.305,13,210.264,210.264,0,0,1,17.955,15.36,228.348,228.348,0,0,1,16.6,17.713A244.007,244.007,0,0,1,765-606.239a248.084,248.084,0,0,1,12.937,21.175c3.961,7.277,7.643,14.913,10.943,22.7s6.311,15.927,8.95,24.213,4.979,16.939,6.958,25.727,3.649,17.949,4.967,27.238a421.984,421.984,0,0,1,3.971,59,517.292,517.292,0,0,1-2.861,55.273,414.225,414.225,0,0,1-8.589,50.7A342.708,342.708,0,0,1,787.955-274.1a298.25,298.25,0,0,1-20.063,41.513L529.214,187.66H818.145Zm-476.967-3H815.145V190.66H524.06l1.273-2.241L765.3-234.1a295.259,295.259,0,0,0,19.864-41.1,339.738,339.738,0,0,0,14.2-45.709,411.217,411.217,0,0,0,8.525-50.328,514.231,514.231,0,0,0,2.844-54.952,418.976,418.976,0,0,0-3.942-58.582c-1.307-9.21-2.964-18.294-4.924-27s-4.277-17.274-6.89-25.475-5.59-16.257-8.853-23.952-6.9-15.241-10.816-22.433a245.11,245.11,0,0,0-12.779-20.918,240.98,240.98,0,0,0-14.744-19.407,225.293,225.293,0,0,0-16.383-17.48,207.288,207.288,0,0,0-17.7-15.14,197.837,197.837,0,0,0-19.016-12.807,196.715,196.715,0,0,0-20.339-10.478,203.684,203.684,0,0,0-21.669-8.151,219.075,219.075,0,0,0-23-5.825,243.468,243.468,0,0,0-24.346-3.5c-8.3-.774-16.946-1.167-25.692-1.167s-17.394.389-25.7,1.155-16.51,1.931-24.383,3.464a222.426,222.426,0,0,0-23.064,5.769,206.886,206.886,0,0,0-21.751,8.073,199.791,199.791,0,0,0-20.444,10.376,200.8,200.8,0,0,0-19.143,12.682A209.891,209.891,0,0,0,427.3-641.988a227.418,227.418,0,0,0-16.555,17.31,242,242,0,0,0-14.916,19.191A243.19,243.19,0,0,0,382.9-584.857c-3.96,7.085-7.641,14.513-10.941,22.076S365.642-547.3,363-539.255s-4.986,16.451-6.968,24.978-3.658,17.424-4.98,26.434a396.175,396.175,0,0,0-3.987,57.241v44.135H494.223v-39.719c0-11.034.443-21.527,1.317-31.187a234.176,234.176,0,0,1,3.96-27.087,155.466,155.466,0,0,1,6.621-22.995,105.312,105.312,0,0,1,9.313-18.9,77.251,77.251,0,0,1,12.036-14.777,66.523,66.523,0,0,1,14.755-10.589,70.83,70.83,0,0,1,17.413-6.346,91.166,91.166,0,0,1,20-2.107,88.1,88.1,0,0,1,19.657,2.108,68.859,68.859,0,0,1,17.118,6.35,65.411,65.411,0,0,1,14.5,10.594,76.992,76.992,0,0,1,11.826,14.779,106.06,106.06,0,0,1,9.148,18.9,157.541,157.541,0,0,1,6.5,22.992,238.005,238.005,0,0,1,3.89,27.084c.859,9.66,1.294,20.152,1.294,31.185a326.545,326.545,0,0,1-2.126,37.528,292.974,292.974,0,0,1-6.381,35.7,274.533,274.533,0,0,1-10.639,33.86,270.289,270.289,0,0,1-14.9,32.013l-.01.019L341.178,221.942Zm-543.212,3H-682V221.151l.195-.344L-393.27-288.546a267.168,267.168,0,0,0,14.72-31.638,271.522,271.522,0,0,0,10.523-33.489A289.979,289.979,0,0,0-361.712-389a323.524,323.524,0,0,0,2.106-37.182c0-10.945-.432-21.348-1.282-30.92a235.025,235.025,0,0,0-3.839-26.74A154.562,154.562,0,0,0-371.1-506.4a103.071,103.071,0,0,0-8.885-18.364,73.993,73.993,0,0,0-11.361-14.2,62.422,62.422,0,0,0-13.836-10.108,65.855,65.855,0,0,0-16.373-6.071,85.1,85.1,0,0,0-18.986-2.032,88.165,88.165,0,0,0-19.337,2.034,67.833,67.833,0,0,0-16.676,6.075,63.527,63.527,0,0,0-14.089,10.112,74.254,74.254,0,0,0-11.564,14.205,102.288,102.288,0,0,0-9.043,18.362,152.475,152.475,0,0,0-6.49,22.549,231.2,231.2,0,0,0-3.907,26.738c-.866,9.571-1.3,19.973-1.3,30.917v42.719H-676.112V-430.6a399.19,399.19,0,0,1,4.018-57.677c1.334-9.091,3.025-18.067,5.026-26.677s4.37-17.1,7.04-25.235,5.717-16.138,9.055-23.789,7.064-15.17,11.072-22.34a246.308,246.308,0,0,1,13.088-20.887,245.052,245.052,0,0,1,15.1-19.43,230.374,230.374,0,0,1,16.774-17.538,212.842,212.842,0,0,1,18.1-15.208,203.756,203.756,0,0,1,19.43-12.873,202.815,202.815,0,0,1,20.752-10.533,209.874,209.874,0,0,1,22.068-8.19,225.415,225.415,0,0,1,23.376-5.847c7.971-1.551,16.274-2.731,24.68-3.506s17.143-1.168,25.98-1.168,17.576.4,25.97,1.18a246.6,246.6,0,0,1,24.648,3.541,222.177,222.177,0,0,1,23.321,5.905,206.689,206.689,0,0,1,21.989,8.272,199.709,199.709,0,0,1,20.65,10.638,200.878,200.878,0,0,1,19.305,13,210.31,210.31,0,0,1,17.955,15.36,228.341,228.341,0,0,1,16.6,17.713,244,244,0,0,1,14.928,19.65,248.137,248.137,0,0,1,12.937,21.175c3.961,7.277,7.643,14.913,10.943,22.7s6.311,15.927,8.95,24.213,4.979,16.939,6.958,25.727,3.649,17.949,4.967,27.238a421.947,421.947,0,0,1,3.971,59,517.229,517.229,0,0,1-2.861,55.273,414.278,414.278,0,0,1-8.588,50.7A342.75,342.75,0,0,1-232.223-274.1a298.266,298.266,0,0,1-20.063,41.513L-490.964,187.66h288.93Zm-476.967-3h473.967V190.66H-496.118l1.273-2.241L-254.88-234.1a295.263,295.263,0,0,0,19.864-41.1,339.709,339.709,0,0,0,14.2-45.709,411.274,411.274,0,0,0,8.525-50.328,514.292,514.292,0,0,0,2.843-54.952,418.946,418.946,0,0,0-3.941-58.582c-1.307-9.21-2.964-18.294-4.923-27s-4.278-17.274-6.89-25.475-5.59-16.257-8.854-23.952-6.9-15.241-10.816-22.433-8.214-14.229-12.78-20.918A241.016,241.016,0,0,0-272.4-623.955a225.34,225.34,0,0,0-16.383-17.48,207.286,207.286,0,0,0-17.7-15.14,197.872,197.872,0,0,0-19.016-12.807,196.716,196.716,0,0,0-20.339-10.478,203.683,203.683,0,0,0-21.669-8.151,219.079,219.079,0,0,0-23-5.825,243.469,243.469,0,0,0-24.346-3.5c-8.3-.774-16.947-1.167-25.692-1.167s-17.394.389-25.7,1.155-16.51,1.931-24.383,3.464a222.442,222.442,0,0,0-23.064,5.769,206.922,206.922,0,0,0-21.751,8.073,199.783,199.783,0,0,0-20.444,10.376,200.83,200.83,0,0,0-19.143,12.682,209.884,209.884,0,0,0-17.848,14.993,227.418,227.418,0,0,0-16.555,17.31,242,242,0,0,0-14.916,19.191,243.252,243.252,0,0,0-12.927,20.631c-3.96,7.085-7.641,14.513-10.941,22.076s-6.314,15.481-8.955,23.525-4.987,16.451-6.968,24.978-3.658,17.424-4.98,26.434a396.171,396.171,0,0,0-3.987,57.241v44.135h147.156v-39.719c0-11.034.443-21.527,1.317-31.187a234.189,234.189,0,0,1,3.959-27.087,155.5,155.5,0,0,1,6.621-22.995,105.31,105.31,0,0,1,9.313-18.9,77.251,77.251,0,0,1,12.036-14.777,66.521,66.521,0,0,1,14.755-10.589,70.828,70.828,0,0,1,17.413-6.346,91.162,91.162,0,0,1,20-2.107,88.1,88.1,0,0,1,19.657,2.108,68.86,68.86,0,0,1,17.118,6.35,65.412,65.412,0,0,1,14.5,10.594,76.992,76.992,0,0,1,11.826,14.779,106.06,106.06,0,0,1,9.148,18.9,157.541,157.541,0,0,1,6.5,22.992,238.005,238.005,0,0,1,3.89,27.084c.859,9.66,1.294,20.152,1.294,31.185a326.552,326.552,0,0,1-2.126,37.528,292.974,292.974,0,0,1-6.382,35.7,274.543,274.543,0,0,1-10.639,33.86,270.3,270.3,0,0,1-14.9,32.013l-.01.019L-679,221.942ZM73.225,202.437A99.517,99.517,0,0,1,51.318,200.1a81.885,81.885,0,0,1-19.448-7.03,80.724,80.724,0,0,1-16.923-11.718A95.812,95.812,0,0,1,.6,164.994a118.891,118.891,0,0,1-11.416-20.5,153.127,153.127,0,0,1-8.131-24.159,208.792,208.792,0,0,1-4.867-27.8,291,291,0,0,1-1.619-31.445V-418.825a291.007,291.007,0,0,1,1.619-31.446,208.806,208.806,0,0,1,4.867-27.8,153.124,153.124,0,0,1,8.131-24.159A118.885,118.885,0,0,1,.6-522.734a95.8,95.8,0,0,1,14.349-16.357,80.735,80.735,0,0,1,16.923-11.718,81.9,81.9,0,0,1,19.448-7.03,99.529,99.529,0,0,1,21.907-2.337,99.529,99.529,0,0,1,21.907,2.337,81.9,81.9,0,0,1,19.448,7.03A80.735,80.735,0,0,1,131.5-539.091a95.8,95.8,0,0,1,14.35,16.357,118.886,118.886,0,0,1,11.417,20.5,153.151,153.151,0,0,1,8.132,24.159,208.844,208.844,0,0,1,4.866,27.8,291,291,0,0,1,1.619,31.445V61.086a291,291,0,0,1-1.619,31.445,208.833,208.833,0,0,1-4.866,27.8,153.141,153.141,0,0,1-8.132,24.159,118.866,118.866,0,0,1-11.416,20.5,95.812,95.812,0,0,1-14.35,16.357,80.724,80.724,0,0,1-16.923,11.718,81.885,81.885,0,0,1-19.448,7.03A99.517,99.517,0,0,1,73.225,202.437Zm0-759.614a96.528,96.528,0,0,0-21.245,2.263,78.894,78.894,0,0,0-18.735,6.771,77.714,77.714,0,0,0-16.292,11.284,92.788,92.788,0,0,0-13.9,15.846A115.881,115.881,0,0,0-8.069-501.031a150.156,150.156,0,0,0-7.97,23.685,205.851,205.851,0,0,0-4.795,27.4,287.988,287.988,0,0,0-1.6,31.119V61.086a287.988,287.988,0,0,0,1.6,31.119,205.852,205.852,0,0,0,4.795,27.4,150.161,150.161,0,0,0,7.97,23.684A115.882,115.882,0,0,0,3.056,163.274a92.789,92.789,0,0,0,13.9,15.846A77.713,77.713,0,0,0,33.245,190.4a78.882,78.882,0,0,0,18.735,6.771,96.525,96.525,0,0,0,21.245,2.263,96.525,96.525,0,0,0,21.245-2.263,78.882,78.882,0,0,0,18.735-6.771A77.713,77.713,0,0,0,129.5,179.119a92.789,92.789,0,0,0,13.9-15.846,115.882,115.882,0,0,0,11.125-19.982,150.137,150.137,0,0,0,7.97-23.684,205.849,205.849,0,0,0,4.794-27.4,287.988,287.988,0,0,0,1.6-31.119V-418.825a287.988,287.988,0,0,0-1.6-31.119,205.81,205.81,0,0,0-4.794-27.4,150.13,150.13,0,0,0-7.969-23.685,115.881,115.881,0,0,0-11.126-19.982,92.788,92.788,0,0,0-13.9-15.846,77.714,77.714,0,0,0-16.292-11.284,78.894,78.894,0,0,0-18.735-6.771A96.528,96.528,0,0,0,73.225-557.177Z" transform="translate(637.5 762.87)" fill="#1c1c1c"/></g></svg>