<svg xmlns="http://www.w3.org/2000/svg" width="265.477" height="265.478" viewBox="0 0 265.477 265.478">
  <g id="img_smile" transform="translate(-2966.645 -4191.531)">
    <path id="Path_11" data-name="Path 11" d="M3228.246,4292.645a132.639,132.639,0,1,0-129.1,164.364,133.6,133.6,0,0,0,31.865-3.876,132.688,132.688,0,0,0,97.237-160.488Zm-22.223,96.236a124.684,124.684,0,1,1,14.454-94.33A123.864,123.864,0,0,1,3206.023,4388.881Z" fill="#ffff3b"/>
    <path id="Path_12" data-name="Path 12" d="M3137.611,4362.637l-1.782.437-.1-.4-106.33,26.1,1.848,7.532,53.649-13.167,4.709,19.188a28.072,28.072,0,0,0,27.182,21.368,28.08,28.08,0,0,0,27.282-34.734Zm-15.936,52.706a20.309,20.309,0,0,1-24.536-14.865l-4.613-18.792,15.936-3.912,5.058,20.61,7.531-1.848-5.058-20.61,15.935-3.91,4.612,18.791A20.309,20.309,0,0,1,3121.675,4415.343Z" fill="#ffff3b"/>
    <path id="Path_13" data-name="Path 13" d="M3105.453,4322.213a15.327,15.327,0,0,1-11.348,12.1l1.877,7.526a23.067,23.067,0,0,0,16.136-14.626,23.032,23.032,0,0,0,21.115,5.338l-1.875-7.526a15.329,15.329,0,0,1-15.7-5.358l13.524-3.371-1.877-7.526-14.863,3.706-3.115-12.492-7.525,1.877,3.115,12.492-14.864,3.706,1.877,7.525Z" fill="#ffff3b"/>
    <path id="Path_14" data-name="Path 14" d="M3035.595,4348.518a22.93,22.93,0,0,0,11.842,3.3,23.245,23.245,0,0,0,5.625-.694l-1.877-7.525a15.283,15.283,0,0,1-15.707-5.355l13.531-3.374-1.877-7.525-14.863,3.706-3.116-12.493-7.525,1.876,3.115,12.493-14.864,3.706,1.877,7.525,13.523-3.371a15.329,15.329,0,0,1-11.346,12.1l1.875,7.525a23.071,23.071,0,0,0,16.132-14.61A23.3,23.3,0,0,0,3035.595,4348.518Z" fill="#ffff3b"/>
  </g>
</svg>
