<svg xmlns="http://www.w3.org/2000/svg" width="108.757" height="16" viewBox="0 0 108.757 16">
  <g id="img_logo" transform="translate(-4258.974 -4240.464)">
    <g id="Group_1" data-name="Group 1" transform="translate(4286.121 4240.464)">
      <path id="Path_1" data-name="Path 1" d="M4297.728,4240.542h-3.453v10.581a5.365,5.365,0,0,0,5.358,5.359H4311.3v-3.453h-11.666a1.908,1.908,0,0,1-1.9-1.906v-1.9H4311.3v-3.454h-13.571Z" transform="translate(-4294.274 -4240.482)" fill="#e4e4e4"/>
      <path id="Path_2" data-name="Path 2" d="M4350.414,4240.464h-3.454v10.582a5.365,5.365,0,0,0,5.358,5.359h11.666v-3.454h-11.666a1.907,1.907,0,0,1-1.9-1.905v-1.905h13.57v-3.454h-13.57Z" transform="translate(-4306.444 -4240.464)" fill="#e4e4e4"/>
      <path id="Path_3" data-name="Path 3" d="M4332.9,4245.687h-8.211v-5.223h-3.454V4256.4h3.454v-7.264h8.211a1.907,1.907,0,0,1,1.9,1.905v5.359h3.454v-5.359A5.365,5.365,0,0,0,4332.9,4245.687Z" transform="translate(-4300.502 -4240.464)" fill="#e4e4e4"/>
      <path id="Path_4" data-name="Path 4" d="M4390.831,4245.687h-16.9v5.359a5.365,5.365,0,0,0,5.358,5.359h14.992v-15.941h-3.453Zm0,7.264h-11.539a1.907,1.907,0,0,1-1.9-1.905v-1.905h13.444Z" transform="translate(-4312.674 -4240.464)" fill="#e4e4e4"/>
    </g>
    <path id="Path_5" data-name="Path 5" d="M4274.146,4245.7h-5.737v-5.155h-3.729v5.155h-5.707v3.6h4.854a6.858,6.858,0,0,1-4.854,3.5v3.684a9.4,9.4,0,0,0,7.874-4.194,10.575,10.575,0,0,0,1.037,1.219,10.409,10.409,0,0,0,6.261,2.882v-3.5a5.725,5.725,0,0,1-3.994-1.57,5.6,5.6,0,0,1-1.323-2.018h5.317Z" transform="translate(0 -0.018)" fill="#e4e4e4"/>
  </g>
</svg>
